# xmcd
#
# Track frame offsets:
#	150
#	10345
#	24025
#	41629
#	55270
#	67902
#	83709
#	102205
#	122809
#	137444
#	160470
#	178574
#	189169
#	196832
#	209546
#	220109
#	242724
#
# Disc length: 3357 seconds
#
# Revision: 0
# Processed by: cddbd v1.4PL0 Copyright (c) Steve Scherf et al.
# Submitted via: EasyCDDAExtractor 5.0.5.1
#
DISCID=dd0d1b11
DTITLE=Various Artist - The Flowers Of Scotland
DYEAR=2003
DGENRE=Country
TTITLE0=Peter Morrison - The Thistle of Scotland
TTITLE1=The Scottish Fiddle Orchestra - Butterfly and Primrose Polkas
TTITLE2=Isla St Clair - Flowers of the forest
TTITLE3=James Nicol and Mary Sandeman - The bluebells of Scotland
TTITLE4=The Scottish Fiddle Orchestra - Flower O' the Quern
TTITLE5=The SFO Folk Symphony - Orange Blossom Special
TTITLE6=Clydesiders - The Rowan Tree
TTITLE7=The Scottish Fiddle Orchestra - The Flower Of Portencross
TTITLE8=Celtic Spirit - My Love is like a red red rose
TTITLE9=James Nicol - The Rose Of Tralee
TTITLE10=Kirsten Easdale - Bright Blue Rose
TTITLE11=The Scottish Fiddle Orchestra - The Rosebud Of Allanvale
TTITLE12=Sir Jimmy Shand and Jimmy Shand JNR - The Bluebell Polka
TTITLE13=The Scottish Fiddle Orchestra - The Flowers Of Edinburgh
TTITLE14=Jim Johnstone and His Band - The Heather Mixture Polka
TTITLE15=Celtic Spirit - The Flower Of Scotland
TTITLE16=Peter Morrison - Roses of Prince Charlie
EXTD=dfd
EXTT0=
EXTT1=
EXTT2=
EXTT3=
EXTT4=
EXTT5=
EXTT6=
EXTT7=
EXTT8=
EXTT9=
EXTT10=
EXTT11=
EXTT12=
EXTT13=
EXTT14=
EXTT15=
EXTT16=
PLAYORDER=
